# AST/ASF file generated using VICON BodyLanguage
# -----------------------------------------------
:version 1.10
:name VICON
:units
  mass 1.0
  length 0.45
  angle deg
:documentation
   .ast/.asf automatically generated from VICON data using
   VICON BodyBuilder and BodyLanguage model FoxedUp or BRILLIANT.MOD
:root
   order TX TY TZ RX RY RZ
   axis XYZ
   position 0 0 0  
   orientation 0 0 0 
:bonedata
  begin
     id 1 
     name lhipjoint
     direction 0.567149 -0.783011 0.255413 
     length 2.28399 
     axis 0 0 0  XYZ
  end
  begin
     id 2 
     name lfemur
     direction 0.34202 -0.939693 0  
     length 7.34031  
     axis 0 0 20  XYZ
    dof rx ry rz
    limits (-160.0 20.0)
           (-70.0 70.0)
           (-60.0 70.0)
  end
  begin
     id 3 
     name ltibia
     direction 0.34202 -0.939693 0   
     length 6.9833   
     axis 0 0 20   XYZ
    dof rx
    limits (-10.0 170.0)
  end
  begin
     id 4 
     name lfoot
     direction 0.136498 -0.375025 0.91691   
     length 2.33665   
     axis -90 7.62852e-016 20   XYZ
    dof rx rz
    limits (-45.0 90.0)
           (-70.0 20.0)
  end
  begin
     id 5 
     name ltoes
     direction 1.5367e-011 -4.21617e-011 1   
     length 1.15039   
     axis -90 7.62852e-016 20   XYZ
    dof rx
    limits (-90.0 20.0)
  end
  begin
     id 6 
     name rhipjoint
     direction -0.602854 -0.758518 0.247423   
     length 2.35775  
     axis 0 0 0  XYZ 
  end
  begin
     id 7 
     name rfemur
     direction -0.34202 -0.939693 0   
     length 7.43932   
     axis 0 0 -20   XYZ
    dof rx ry rz
    limits (-160.0 20.0)
           (-70.0 70.0)
           (-70.0 60.0)
  end
  begin
     id 8 
     name rtibia
     direction -0.34202 -0.939693 0   
     length 7.11893   
     axis 0 0 -20   XYZ
    dof rx
    limits (-10.0 170.0)
 end
 begin
     id 9 
     name rfoot
     direction -0.131771 -0.362037 0.922803   
     length 2.53019  
     axis -90 -7.62852e-016 -20   XYZ
    dof rx rz
    limits (-45.0 90.0)
           (-20.0 70.0)
  end
  begin
     id 10 
     name rtoes
     direction -1.53733e-011 -4.21932e-011 1   
     length 1.24596   
     axis -90 -7.62852e-016 -20   XYZ
    dof rx
    limits (-90.0 20.0)
  end
  begin
     id 11 
     name lowerback
     direction 0.0235427 0.999023 -0.0374125   
     length 2.21768   
     axis 0 0 0   XYZ
    dof rx ry rz
    limits (-20.0 45.0)
           (-30.0 30.0)
           (-30.0 30.0)
  end
  begin
     id 12 
     name upperback
     direction 0.0302156 0.996818 -0.073759   
     length 2.20352   
     axis 0 0 0   XYZ
    dof rx ry rz
    limits (-20.0 45.0)
           (-30.0 30.0)
           (-30.0 30.0)
  end
  begin
     id 13 
     name thorax
     direction 0.0187169 0.998235 -0.0563532   
     length 2.22103   
     axis 0 0 0   XYZ
    dof rx ry rz
    limits (-20.0 45.0)
           (-30.0 30.0)
           (-30.0 30.0)
  end
  begin
     id 14 
     name lowerneck
     direction -0.119528 0.987423 0.103481   
     length 1.72948   
     axis 0 0 0   XYZ
    dof rx ry rz
    limits (-20.0 45.0)
           (-30.0 30.0)
           (-30.0 30.0)
  end
  begin
     id 15 
     name upperneck
     direction 0.248049 0.963095 -0.104496   
     length 1.74979   
     axis 0 0 0   XYZ
    dof rx ry rz
    limits (-20.0 45.0)
           (-30.0 30.0)
           (-30.0 30.0)
  end
  begin
     id 16
     name head
     direction 0.0903589 0.994284 -0.056876  
     length 1.78268  
     axis 0 0 0   XYZ
    dof rx ry rz
    limits (-20.0 45.0)
           (-30.0 30.0)
           (-30.0 30.0)
  end
  begin
     id 17 
     name lclavicle
     direction 0.946008 0.242039 -0.215608  
     length 3.80783  
     axis 0 0 0   XYZ
    dof ry rz
    limits (-20.0 10.0)
           (0.0 20.0)
  end
  begin
     id 18 
     name lhumerus
     direction 1 -4.48991e-011 -2.25695e-027   
     length 4.83125   
     axis 180 -30 -90   XYZ
    dof rx ry rz
    limits (-60.0 90.0)
           (-90.0 90.0)
           (-90.0 90.0)
  end
  begin
     id 19
     name lradius
     direction 0.999991 0.00366712 -0.00211721   
     length 3.00391   
     axis 180 -30 -90   XYZ
    dof rx
    limits (-10.0 170.0)
  end
  begin
     id 20
     name lwrist
     direction 0.999991 0.00393016 -0.00141978   
     length 1.50195   
     axis -1.00488e-014 90 90   XYZ
    dof ry
    limits (-180.0 0.0)
 end
  begin
     id 21 
     name lhand
     direction 1 -4.49123e-011 2.72098e-026   
     length 1.2717   
     axis -1.73687e-014 90 90   XYZ
    dof rx rz
    limits (-90.0 90.0)
           (-45.0 45.0)
  end
  begin
     id 22 
     name lfingers
     direction 1 -4.48678e-011 5.4479e-026   
     length 1.02528   
     axis -3.47372e-014 90 90   XYZ
    dof rx
    limits (0.0 90.0)
  end
  begin
     id 23
     name lthumb
     direction 0.707107 -6.34851e-011 0.707107   
     length 1.4721   
     axis -90 45 -1.62303e-014   XYZ
    dof rx rz
    limits (-45.0 45.0)
           (-45.0 45.0)
  end
  begin
     id 24 
     name rclavicle
     direction -0.981723 0.189447 -0.0181673   
     length 3.74989  
     axis 0 0 0   XYZ 
    dof ry rz
    limits (-10.0 20.0)
           (-20.0 0.0)
  end
  begin
     id 25 
     name rhumerus
     direction -1 -4.48985e-011 2.38206e-027  
     length 4.61118   
     axis 180 30 90   XYZ
    dof rx ry rz
    limits (-90.0 60.0)
           (-90.0 90.0)
           (-90.0 90.0)
  end
  begin
     id 26 
     name rradius
     direction -1 -4.48977e-011 7.41019e-027   
     length 2.91491   
     axis 180 30 90   XYZ
    dof rx
    limits (-10.0 170.0)
  end
  begin
     id 27 
     name rwrist
     direction -1 -4.48549e-011 1.3624e-026   
     length 1.45745   
     axis -1.00488e-014 -90 -90   XYZ
    dof ry
    limits (-180.0 0.0)
  end
  begin
     id 28
     name rhand
     direction -1 -4.49107e-011 2.72109e-026   
     length 1.30769   
     axis -1.73687e-014 -90 -90   XYZ
    dof rx rz
    limits (-90.0 90.0)
           (-45.0 45.0)
  end
  begin
     id 29
     name rfingers
     direction -1 -4.48919e-011 5.44468e-026   
     length 1.05429   
     axis -3.47372e-014 -90 -90   XYZ
    dof rx
    limits (0.0 90.0)
  end
  begin
     id 30
     name rthumb
     direction -0.707107 -6.35315e-011 0.707107   
     length 1.51376   
     axis -90 -45 1.62303e-014   XYZ
    dof rx rz
    limits (-45.0 45.0)
           (-45.0 45.0)
  end
:hierarchy
  begin
    root lhipjoint rhipjoint lowerback
    lhipjoint lfemur
    lfemur ltibia
    ltibia lfoot
    lfoot ltoes
    rhipjoint rfemur
    rfemur rtibia
    rtibia rfoot
    rfoot rtoes
    lowerback upperback
    upperback thorax
    thorax lowerneck lclavicle rclavicle
    lowerneck upperneck
    upperneck head
    lclavicle lhumerus
    lhumerus lradius
    lradius lwrist
    lwrist lhand lthumb
    lhand lfingers
    rclavicle rhumerus
    rhumerus rradius
    rradius rwrist
    rwrist rhand rthumb
    rhand rfingers
  end

#!OML:ASF X:\für Bonn\!DataBase\2005_08_11_Bastian_Final\c3d\Bastian.ASF
:FULLY-SPECIFIED
:DEGREES
1
root 1.66086 15.8897 16.9188 718.857 6.50031 -7.91806
lowerback 7.80753 -0.549125 2.88462
upperback 2.54158 -0.487558 0.802734
thorax -1.766 -0.240653 -0.748012
lowerneck -13.4969 -6.18934 -6.32641
upperneck -7.03348 -7.18532 11.3046
head 0.742753 -3.30651 4.09619
rclavicle 2.48481e-014 -1.03368e-014
rhumerus -43.0315 10.2251 -91.8803
rradius 52.4772
rwrist 3.4127
rhand -22.6013 18.3951
rfingers 7.12502
rthumb 3.82814 -11.5502
lclavicle 2.48481e-014 -1.03368e-014
lhumerus -25.0503 7.01896 81.4154
lradius 49.5973
lwrist -166.44
lhand -28.0822 11.4872
lfingers 7.12502
lthumb -1.46534 41.462
rfemur -14.2665 -1.17455 32.462
rtibia 58.2928
rfoot -29.0038 10.9659
rtoes 35.9239
lfemur -13.7819 0.407154 -10.7034
ltibia 60.917
lfoot -29.334 -17.2496
ltoes -4.0874
2
root 1.65635 16.0992 17.2107 719.152 6.37979 -7.90361
lowerback 5.71856 -0.704027 2.80579
upperback 2.28192 -0.773969 0.769543
thorax -0.883178 -0.376336 -0.733932
lowerneck -12.6576 -5.91345 -6.39292
upperneck -6.15239 -6.91913 11.249
head 0.85365 -3.18379 4.10909
rclavicle -3.3694e-014 1.51076e-014
rhumerus -43.5809 11.7985 -92.0839
rradius 54.8144
rwrist 6.19327
rhand -23.6134 19.1269
rfingers 7.12502
rthumb 2.85073 -10.8338
lclavicle -3.3694e-014 1.51076e-014
lhumerus -25.4581 3.71022 81.219
lradius 53.2892
lwrist -164.807
lhand -28.8539 10.9361
lfingers 7.12502
lthumb -2.21059 40.9044
rfemur -11.9515 -1.10558 32.5031
rtibia 55.1375
rfoot -27.1402 10.2815
rtoes 35.395
lfemur -11.5754 0.286924 -10.4268
ltibia 57.8339
lfoot -26.9931 -17.4318
ltoes -4.56545
3
root 1.65272 16.3283 17.5082 719.384 6.32777 -7.7012
lowerback 3.64465 -0.894747 2.55624
upperback 1.95049 -1.10765 0.662747
thorax -0.0766052 -0.538421 -0.712668
lowerneck -11.6454 -5.60221 -6.4765
upperneck -5.04448 -6.62912 11.2011
head 1.00161 -3.05018 4.12845
rclavicle 2.08724e-014 1.51076e-014
rhumerus -44.5256 13.5061 -92.4464
rradius 57.4696
rwrist 8.4071
rhand -24.5708 19.3039
rfingers 7.12502
rthumb 1.92609 -10.6672
lclavicle 2.08724e-014 1.51076e-014
lhumerus -26.2849 0.46922 80.8192
lradius 57.3802
lwrist -163.325
lhand -29.8437 10.5047
lfingers 7.12502
lthumb -3.1665 40.4609
rfemur -9.53067 -1.12317 32.309
rtibia 51.8222
rfoot -24.4193 9.37779
rtoes 34.3962
lfemur -9.31175 -0.0971796 -10.3875
ltibia 54.6039
lfoot -24.1225 -17.4461
ltoes -5.5971
4
root 1.64664 16.5898 17.8168 719.588 6.20809 -7.37547
lowerback 1.59305 -1.05621 2.20929
upperback 1.51255 -1.38737 0.473993
thorax 0.615998 -0.676691 -0.737476
lowerneck -10.4508 -5.29035 -6.59716
upperneck -3.71586 -6.36051 11.2014
head 1.1883 -2.92789 4.16807
rclavicle -3.62782e-015 9.54166e-015
rhumerus -46.0633 15.118 -92.9936
rradius 60.2782
rwrist 10.0328
rhand -26.0973 19.9508
rfingers 7.12502
rthumb 0.451783 -10.0284
lclavicle -3.62782e-015 9.54166e-015
lhumerus -27.6637 -2.99814 80.2497
lradius 61.7324
lwrist -161.726
lhand -30.7405 10.5321
lfingers 7.12502
lthumb -4.03258 40.4737
rfemur -7.11299 -0.935598 32.0298
rtibia 48.4336
rfoot -20.7763 8.12621
rtoes 33.4057
lfemur -7.06623 -0.436431 -10.5569
ltibia 51.3415
lfoot -20.9973 -16.9425
ltoes -9.27037
5
root 1.64056 16.8648 18.1299 719.832 5.90501 -6.98288
lowerback -0.512426 -1.15309 1.81687
upperback 1.07172 -1.56265 0.245005
thorax 1.34305 -0.763082 -0.792256
lowerneck -9.38762 -4.99494 -6.69181
upperneck -2.2511 -6.12188 11.1868
head 1.43337 -2.81525 4.19396
rclavicle -6.03808e-015 0
rhumerus -47.4953 16.4808 -93.5087
rradius 63.0437
rwrist 11.4205
rhand -26.9291 20.2737
rfingers 7.12502
rthumb -0.351651 -9.70578
lclavicle -6.03808e-015 0
lhumerus -29.3517 -6.38406 79.5678
lradius 66.7642
lwrist -160.452
lhand -31.7291 9.98558
lfingers 7.12502
lthumb -4.98717 39.9069
rfemur -4.93846 -0.296573 31.7629
rtibia 45.2285
rfoot -16.394 6.33406
rtoes 32.478
lfemur -5.07335 -0.622096 -10.8929
ltibia 48.3401
lfoot -17.2914 -16.0991
ltoes -14.7753
6
root 1.63285 17.1505 18.4334 720.138 5.58912 -6.55622
lowerback -2.60123 -1.20562 1.47319
upperback 0.728696 -1.65722 -0.0687166
thorax 2.16148 -0.807048 -0.968719
lowerneck -8.67114 -4.76586 -6.63993
upperneck -0.758703 -5.97312 11.1715
head 1.74341 -2.73713 4.18565
rclavicle 1.01504e-014 9.54166e-015
rhumerus -48.5049 17.6601 -93.9958
rradius 65.8031
rwrist 12.3024
rhand -27.2481 20.2611
rfingers 7.12502
rthumb -0.65972 -9.71767
lclavicle 1.01504e-014 9.54166e-015
lhumerus -30.8947 -9.69312 78.6931
lradius 71.9197
lwrist -159.11
lhand -32.6165 9.65009
lfingers 7.12502
lthumb -5.84397 39.5495
rfemur -3.1339 0.72357 31.5893
rtibia 42.3496
rfoot -11.7756 3.8245
rtoes 31.8475
lfemur -3.52994 -0.946032 -11.3614
ltibia 45.7615
lfoot -12.6242 -15.2496
ltoes -19.1978
7
root 1.62547 17.4481 18.7115 720.393 5.43686 -6.14381
lowerback -4.32138 -1.3266 1.17343
upperback 0.484779 -1.82002 -0.379191
thorax 2.87181 -0.885044 -1.1696
lowerneck -8.39489 -4.56148 -6.59404
upperneck 0.798757 -5.84229 11.1664
head 2.14552 -2.65243 4.17418
rclavicle -1.72694e-014 -4.77083e-015
rhumerus -49.1585 18.8909 -94.4514
rradius 68.5501
rwrist 12.4918
rhand -27.2338 19.9877
rfingers 7.12502
rthumb -0.645874 -9.99109
lclavicle -1.72694e-014 -4.77083e-015
lhumerus -32.2185 -12.5295 77.6681
lradius 77.0774
lwrist -157.882
lhand -33.2358 9.4094
lfingers 7.12502
lthumb -6.44183 39.2914
rfemur -1.71181 1.81447 31.5007
rtibia 39.9709
rfoot -7.25891 0.703146
rtoes 31.616
lfemur -2.43872 -1.57643 -11.9293
ltibia 43.7517
lfoot -7.31923 -14.3376
ltoes -21.8577
8
root 1.61703 17.7539 18.9617 720.52 5.32794 -5.83323
lowerback -5.57134 -1.46266 0.988717
upperback 0.417063 -1.99307 -0.645159
thorax 3.49666 -0.9664 -1.38841
lowerneck -8.72062 -4.42446 -6.62586
upperneck 2.39109 -5.77279 11.1992
head 2.66619 -2.57785 4.17628
rclavicle 3.46134e-014 2.70347e-014
rhumerus -49.4473 20.2052 -94.7636
rradius 71.3153
rwrist 11.6965
rhand -26.8515 19.7616
rfingers 7.12502
rthumb -0.276664 -10.2179
lclavicle 3.46134e-014 2.70347e-014
lhumerus -33.0455 -14.7347 76.4794
lradius 82.0743
lwrist -156.877
lhand -33.5907 9.42098
lfingers 7.12502
lthumb -6.78449 39.2923
rfemur -0.644711 2.93342 31.5591
rtibia 38.1698
rfoot -2.77346 -2.90099
rtoes 32.266
lfemur -1.70555 -2.26077 -12.4688
ltibia 42.353
lfoot -1.62021 -13.1116
ltoes -22.5413
9
root 1.60739 18.0649 19.1946 720.634 5.19013 -5.60624
lowerback -6.55795 -1.607 0.864781
upperback 0.477529 -2.17332 -0.877644
thorax 4.10476 -1.04953 -1.60922
lowerneck -9.33926 -4.30076 -6.55166
upperneck 3.75072 -5.69902 11.1745
head 3.16272 -2.49649 4.14439
rclavicle -2.24875e-014 -3.49861e-014
rhumerus -49.5783 21.4944 -94.9817
rradius 74.1375
rwrist 10.4808
rhand -26.0556 19.1946
rfingers 7.12502
rthumb 0.492077 -10.7846
lclavicle -2.24875e-014 -3.49861e-014
lhumerus -33.5227 -16.5121 75.0614
lradius 87.0268
lwrist -155.815
lhand -33.5701 9.41149
lfingers 7.12502
lthumb -6.76456 39.2834
rfemur -0.0328356 3.97617 31.6876
rtibia 36.9777
rfoot 1.71972 -6.88998
rtoes 33.9173
lfemur -1.40289 -2.78653 -12.9556
ltibia 41.5867
lfoot 4.06298 -11.35
ltoes -21.6951
10
root 1.59594 18.3808 19.4186 720.833 5.0032 -5.52031
lowerback -7.38374 -1.76967 0.857016
upperback 0.543687 -2.38553 -1.03945
thorax 4.6255 -1.14669 -1.82658
lowerneck -9.99923 -4.14685 -6.41409
upperneck 4.78483 -5.56056 11.0904
head 3.56177 -2.38889 4.09239
rclavicle 1.23246e-014 1.03368e-014
rhumerus -49.6363 22.748 -95.0663
rradius 77.0139
rwrist 9.3445
rhand -24.8038 18.1852
rfingers 7.12502
rthumb 1.70104 -11.7877
lclavicle 1.23246e-014 1.03368e-014
lhumerus -33.8364 -17.9022 73.5215
lradius 91.8325
lwrist -154.449
lhand -33.0984 9.45214
lfingers 7.12502
lthumb -6.30918 39.3382
rfemur 0.0563862 4.77828 31.8935
rtibia 36.4371
rfoot 5.88134 -10.8309
rtoes 35.8702
lfemur -1.59334 -2.96027 -13.2829
ltibia 41.4627
lfoot 9.0994 -9.24185
ltoes -21.4158
11
root 1.58358 18.6907 19.6288 721.142 4.77554 -5.68065
lowerback -8.14861 -1.89007 1.09652
upperback 0.637041 -2.56823 -1.11682
thorax 5.13418 -1.22246 -2.09607
lowerneck -10.7192 -4.03801 -6.28773
upperneck 5.57423 -5.46049 11.0138
head 3.90335 -2.30292 4.04429
rclavicle -2.8128e-014 -2.54444e-014
rhumerus -49.5265 23.8203 -94.9169
rradius 79.8125
rwrist 8.44598
rhand -23.4579 17.2757
rfingers 7.12502
rthumb 3.0009 -12.6829
lclavicle -2.8128e-014 -2.54444e-014
lhumerus -33.7958 -18.8967 71.9778
lradius 96.2458
lwrist -153.001
lhand -32.8111 8.41828
lfingers 7.12502
lthumb -6.03188 38.3124
rfemur -0.365322 5.39349 32.3102
rtibia 36.5056
rfoot 9.34617 -14.2712
rtoes 37.0868
lfemur -2.32942 -2.72627 -13.2961
ltibia 41.9768
lfoot 13.5134 -6.94052
ltoes -20.2165
12
root 1.57188 18.9844 19.8194 721.455 4.52536 -5.95844
lowerback -8.73944 -1.95143 1.47142
upperback 0.767173 -2.69143 -1.15345
thorax 5.58078 -1.26396 -2.38975
lowerneck -11.5861 -4.00328 -6.32273
upperneck 6.38023 -5.44412 11.0522
head 4.29158 -2.25113 4.05267
rclavicle 8.87077e-015 2.22639e-014
rhumerus -49.3842 24.782 -94.5482
rradius 82.5646
rwrist 8.01504
rhand -22.4221 16.4034
rfingers 7.12502
rthumb 4.0012 -13.5388
lclavicle 8.87077e-015 2.22639e-014
lhumerus -33.5199 -19.5299 70.5092
lradius 100.266
lwrist -151.54
lhand -32.511 7.61876
lfingers 7.12502
lthumb -5.74209 37.521
rfemur -1.16358 5.14872 32.5942
rtibia 37.1025
rfoot 12.6076 -16.3299
rtoes 37.2528
lfemur -3.44784 -2.18552 -13.1528
ltibia 43.0985
lfoot 16.9282 -4.63548
ltoes -15.8509
13
root 1.55938 19.2716 19.9992 721.654 4.19065 -6.17338
lowerback -9.05338 -1.95684 1.76142
upperback 0.951531 -2.73326 -1.17734
thorax 5.93627 -1.26723 -2.6031
lowerneck -12.2357 -4.01132 -6.47237
upperneck 6.86021 -5.45205 11.1288
head 4.55259 -2.22524 4.09403
rclavicle 2.29099e-014 7.95139e-015
rhumerus -49.3317 25.6562 -93.9948
rradius 84.9848
rwrist 8.65307
rhand -22.2159 16.087
rfingers 7.12502
rthumb 4.20029 -13.8514
lclavicle 2.29099e-014 7.95139e-015
lhumerus -33.0579 -19.6698 69.226
lradius 103.792
lwrist -150.076
lhand -32.2847 7.11848
lfingers 7.12502
lthumb -5.52366 37.0265
rfemur -2.03905 4.65087 32.7306
rtibia 38.1189
rfoot 15.1835 -17.5997
rtoes 37.0913
lfemur -4.68959 -1.34213 -13.0513
ltibia 44.7455
lfoot 19.1196 -2.78967
ltoes -13.1924
14
root 1.54558 19.5468 20.1675 721.599 3.76371 -6.15929
lowerback -8.95405 -1.93632 1.7757
upperback 1.24669 -2.70298 -1.25345
thorax 6.1889 -1.24343 -2.69141
lowerneck -12.5985 -4.04446 -6.60539
upperneck 6.92081 -5.46865 11.1766
head 4.63795 -2.22207 4.12581
rclavicle 3.17124e-014 1.90833e-014
rhumerus -49.3217 26.3998 -93.3708
rradius 87.3459
rwrist 9.44703
rhand -21.996 16.0685
rfingers 7.12502
rthumb 4.41263 -13.8655
lclavicle 3.17124e-014 1.90833e-014
lhumerus -32.4973 -19.3409 68.1039
lradius 106.777
lwrist -148.611
lhand -32.1676 7.0757
lfingers 7.12502
lthumb -5.41057 36.9866
rfemur -2.78133 4.086 32.6039
rtibia 39.4688
rfoot 16.8717 -18.5609
rtoes 36.9893
lfemur -5.80687 -0.243365 -13.1583
ltibia 46.8027
lfoot 20.1672 -1.76138
ltoes -13.5426
15
root 1.53275 19.8019 20.3192 721.233 3.36816 -5.99548
lowerback -8.31814 -1.89989 1.625
upperback 1.6351 -2.62472 -1.36446
thorax 6.24315 -1.20456 -2.69573
lowerneck -12.7479 -4.11234 -6.82336
upperneck 6.71358 -5.51024 11.2859
head 4.61276 -2.24174 4.19072
rclavicle 2.8215e-014 -1.27222e-014
rhumerus -49.3908 26.9716 -92.7225
rradius 89.6881
rwrist 10.212
rhand -21.7502 16.249
rfingers 7.12502
rthumb 4.64995 -13.68
lclavicle 2.8215e-014 -1.27222e-014
lhumerus -31.8884 -18.6392 67.2955
lradius 109.157
lwrist -147.254
lhand -32.0673 7.62339
lfingers 7.12502
lthumb -5.31375 37.5368
rfemur -3.32938 3.46707 32.3013
rtibia 41.037
rfoot 17.9408 -19.1611
rtoes 37.6381
lfemur -6.73275 0.903572 -13.369
ltibia 49.1214
lfoot 20.4709 -1.6077
ltoes -15.9395
